<svg xmlns="http://www.w3.org/2000/svg" width="30" height="30" viewBox="0 0 30 30">
  <path fill="#B7A3FF" fill-rule="evenodd" d="M29.884,14.942 L29.884,14.942 C29.884,16.3738953 28.7232195,17.5346758 27.2913242,17.5346758 L17.5346758,17.5346758 L17.5346758,27.2913242 C17.5346758,28.7232195 16.3738953,29.884 14.942,29.884 L14.942,29.884 C13.5101047,29.884 12.3493242,28.7232195 12.3493242,27.2913242 L12.3493242,17.5346758 L2.5926758,17.5346758 C1.16078049,17.5346758 1.753566e-16,16.3738953 0,14.942 L0,14.942 C1.09642191e-15,13.5101047 1.16078049,12.3493242 2.5926758,12.3493242 L12.3493242,12.3493242 L12.3493242,2.5926758 C12.3493242,1.16078049 13.5101047,1.53481341e-15 14.942,0 L14.942,0 C16.3738953,-1.53481341e-15 17.5346758,1.16078049 17.5346758,2.5926758 L17.5346758,12.3493242 L27.2913242,12.3493242 C28.7232195,12.3493242 29.884,13.5101047 29.884,14.942 Z"/>
</svg>
