<svg xmlns="http://www.w3.org/2000/svg" width="121" height="35" viewBox="0 0 121 35">
  <g fill="#2E2E2E" fill-rule="evenodd">
    <path d="M0.384,0.348 L13.544,0.348 C14.9853405,0.348 16.3326604,0.575164395 17.586,1.0295 C18.8393396,1.48383561 19.928162,2.11049601 20.8525,2.9095 C21.776838,3.708504 22.5053307,4.64066134 23.038,5.706 C23.5706693,6.77133866 23.837,7.91499389 23.837,9.137 C23.837,10.9230089 23.406171,12.4191606 22.5445,13.6255 C21.682829,14.8318394 20.6096731,15.7483302 19.325,16.375 L19.325,16.751 C21.048342,17.3776698 22.4348281,18.3568267 23.4845,19.6885 C24.5341719,21.0201733 25.059,22.6729901 25.059,24.647 C25.059,26.0883405 24.7691696,27.3808276 24.1895,28.5245 C23.6098304,29.6681724 22.8186717,30.6473293 21.816,31.462 C20.8133283,32.2766707 19.6461733,32.9033311 18.3145,33.342 C16.9828267,33.7806689 15.549341,34 14.014,34 L0.384,34 L0.384,0.348 Z M13.074,14.072 C14.546674,14.072 15.682496,13.672504 16.4815,12.8735 C17.280504,12.074496 17.68,11.1266721 17.68,10.03 C17.68,8.93332785 17.2883372,7.99333725 16.505,7.21 C15.7216628,6.42666275 14.6406736,6.035 13.262,6.035 L6.729,6.035 L6.729,14.072 L13.074,14.072 Z M13.779,28.172 C15.377008,28.172 16.5989958,27.772504 17.445,26.9735 C18.2910042,26.174496 18.714,25.1483396 18.714,23.895 C18.714,22.6416604 18.283171,21.5998375 17.4215,20.7695 C16.559829,19.9391625 15.2830085,19.524 13.591,19.524 L6.729,19.524 L6.729,28.172 L13.779,28.172 Z M51.003,28.454 C49.9376613,30.3340094 48.5041757,31.8536609 46.7025,33.013 C44.9008243,34.1723391 42.6996797,34.752 40.099,34.752 C38.3443246,34.752 36.7228408,34.4465031 35.2345,33.8355 C33.7461592,33.2244969 32.4536721,32.3706722 31.357,31.274 C30.2603279,30.1773279 29.4065031,28.8848408 28.7955,27.3965 C28.1844969,25.9081592 27.879,24.2710089 27.879,22.485 C27.879,20.824325 28.1766637,19.2498408 28.772,17.7615 C29.3673363,16.2731592 30.1976613,14.9728389 31.263,13.8605 C32.3283387,12.7481611 33.5894927,11.8630033 35.0465,11.205 C36.5035073,10.5469967 38.1093246,10.218 39.864,10.218 C41.7126759,10.218 43.3576595,10.5234969 44.799,11.1345 C46.2403405,11.7455031 47.4466618,12.5914946 48.418,13.6725 C49.3893382,14.7535054 50.1256642,16.030326 50.627,17.503 C51.1283358,18.975674 51.379,20.5736581 51.379,22.297 L51.379,22.861 C51.3476665,23.0490009 51.332,23.2213326 51.332,23.378 C51.3006665,23.5346675 51.285,23.7069991 51.285,23.895 L33.942,23.895 C34.067334,24.8350047 34.3258314,25.64183 34.7175,26.3155 C35.1091686,26.98917 35.5948304,27.5531644 36.1745,28.0075 C36.7541696,28.4618356 37.3886632,28.7908323 38.078,28.9945 C38.7673368,29.1981677 39.4723297,29.3 40.193,29.3 C41.603007,29.3 42.770162,28.9788365 43.6945,28.3365 C44.618838,27.6941635 45.3473307,26.8873382 45.88,25.916 L51.003,28.454 Z M45.41,19.524 C45.3786665,19.1166646 45.2455012,18.6623358 45.0105,18.161 C44.7754988,17.6596642 44.4308356,17.1896689 43.9765,16.751 C43.5221644,16.3123311 42.95817,15.9520014 42.2845,15.67 C41.61083,15.3879986 40.8040047,15.247 39.864,15.247 C38.5479934,15.247 37.3886717,15.6229962 36.386,16.375 C35.3833283,17.1270038 34.6783354,18.1766599 34.271,19.524 L45.41,19.524 Z M77.135,28.454 C76.0696613,30.3340094 74.6361757,31.8536609 72.8345,33.013 C71.0328243,34.1723391 68.8316797,34.752 66.231,34.752 C64.4763246,34.752 62.8548408,34.4465031 61.3665,33.8355 C59.8781592,33.2244969 58.5856721,32.3706722 57.489,31.274 C56.3923279,30.1773279 55.5385031,28.8848408 54.9275,27.3965 C54.3164969,25.9081592 54.011,24.2710089 54.011,22.485 C54.011,20.824325 54.3086637,19.2498408 54.904,17.7615 C55.4993363,16.2731592 56.3296613,14.9728389 57.395,13.8605 C58.4603387,12.7481611 59.7214927,11.8630033 61.1785,11.205 C62.6355073,10.5469967 64.2413246,10.218 65.996,10.218 C67.8446759,10.218 69.4896595,10.5234969 70.931,11.1345 C72.3723405,11.7455031 73.5786618,12.5914946 74.55,13.6725 C75.5213382,14.7535054 76.2576642,16.030326 76.759,17.503 C77.2603358,18.975674 77.511,20.5736581 77.511,22.297 L77.511,22.861 C77.4796665,23.0490009 77.464,23.2213326 77.464,23.378 C77.4326665,23.5346675 77.417,23.7069991 77.417,23.895 L60.074,23.895 C60.199334,24.8350047 60.4578314,25.64183 60.8495,26.3155 C61.2411686,26.98917 61.7268304,27.5531644 62.3065,28.0075 C62.8861696,28.4618356 63.5206632,28.7908323 64.21,28.9945 C64.8993368,29.1981677 65.6043297,29.3 66.325,29.3 C67.7350071,29.3 68.902162,28.9788365 69.8265,28.3365 C70.750838,27.6941635 71.4793307,26.8873382 72.012,25.916 L77.135,28.454 Z M71.542,19.524 C71.5106665,19.1166646 71.3775012,18.6623358 71.1425,18.161 C70.9074988,17.6596642 70.5628356,17.1896689 70.1085,16.751 C69.6541644,16.3123311 69.09017,15.9520014 68.4165,15.67 C67.74283,15.3879986 66.9360047,15.247 65.996,15.247 C64.6799934,15.247 63.5206717,15.6229962 62.518,16.375 C61.5153283,17.1270038 60.8103354,18.1766599 60.403,19.524 L71.542,19.524 Z M81.459,10.97 L87.24,10.97 L87.24,14.166 L87.616,14.166 C87.8980014,13.6019972 88.2739977,13.0850024 88.744,12.615 C89.2140023,12.1449977 89.7388304,11.7376684 90.3185,11.393 C90.8981696,11.0483316 91.52483,10.7820009 92.1985,10.594 C92.87217,10.4059991 93.5379967,10.312 94.196,10.312 C95.0106707,10.312 95.7078304,10.3903326 96.2875,10.547 C96.8671696,10.7036675 97.3606646,10.9073321 97.768,11.158 L96.123,16.751 C95.7469981,16.5629991 95.3318356,16.4141672 94.8775,16.3045 C94.4231644,16.1948328 93.8670033,16.14 93.209,16.14 C92.3629958,16.14 91.5953368,16.3044984 90.906,16.6335 C90.2166632,16.9625016 89.6291691,17.4246637 89.1435,18.02 C88.6578309,18.6153363 88.2818347,19.312496 88.0155,20.1115 C87.7491653,20.910504 87.616,21.7799953 87.616,22.72 L87.616,34 L81.459,34 L81.459,10.97 Z M114.782,31.556 L114.406,31.556 C113.68533,32.4333377 112.815838,33.1853302 111.7975,33.812 C110.779162,34.4386698 109.471008,34.752 107.873,34.752 C106.682327,34.752 105.562172,34.5561686 104.5125,34.1645 C103.462828,33.7728314 102.546337,33.2323368 101.763,32.543 C100.979663,31.8536632 100.368669,31.0233382 99.93,30.052 C99.4913311,29.0806618 99.272,28.0153391 99.272,26.856 C99.272,25.6653274 99.5069977,24.5921714 99.977,23.6365 C100.447002,22.6808286 101.104996,21.8583368 101.951,21.169 C102.797004,20.4796632 103.791828,19.9548351 104.9355,19.5945 C106.079172,19.2341649 107.32466,19.054 108.672,19.054 C110.176008,19.054 111.413662,19.1714988 112.385,19.4065 C113.356338,19.6415012 114.15533,19.8843321 114.782,20.135 L114.782,19.43 C114.782,18.2079939 114.296338,17.197504 113.325,16.3985 C112.353662,15.599496 111.147341,15.2 109.706,15.2 C107.575323,15.2 105.773674,16.0929911 104.301,17.879 L99.836,14.824 C102.280012,11.753318 105.616979,10.218 109.847,10.218 C113.419018,10.218 116.144991,11.0561583 118.025,12.7325 C119.905009,14.4088417 120.845,16.8919835 120.845,20.182 L120.845,34 L114.782,34 L114.782,31.556 Z M114.782,24.647 C114.06133,24.3023316 113.317171,24.0281677 112.5495,23.8245 C111.781829,23.6208323 110.943671,23.519 110.035,23.519 C108.562326,23.519 107.426504,23.8401635 106.6275,24.4825 C105.828496,25.1248365 105.429,25.9159953 105.429,26.856 C105.429,27.7960047 105.812829,28.5479972 106.5805,29.112 C107.348171,29.6760028 108.233328,29.958 109.236,29.958 C110.050671,29.958 110.802663,29.8091682 111.492,29.5115 C112.181337,29.2138318 112.768831,28.8221691 113.2545,28.3365 C113.740169,27.8508309 114.116165,27.2868365 114.3825,26.6445 C114.648835,26.0021635 114.782,25.3363368 114.782,24.647 Z"/>
    <circle cx="39.5" cy="3.5" r="3.5"/>
    <circle cx="65.5" cy="3.5" r="3.5"/>
  </g>
</svg>
